<svg width="48" height="48" fill="none" xmlns="http://www.w3.org/2000/svg"><path fill-rule="evenodd" clip-rule="evenodd" d="M46.608 6.02a.975.975 0 00-.927-.047l-7.624 3.591a8.283 8.283 0 00-4.728 6.837l-.196 2.436-3.95 6.561v-2.801a.047.047 0 00-.003-.013c-.001-.005-.003-.009-.003-.014a.978.978 0 00-.046-.284l-1.838-5.514 3.753-7.504a.984.984 0 00-.099-1.03l-5.9-7.867a1.019 1.019 0 00-1.573 0L17.573 8.24a.984.984 0 00-.093 1.03l3.753 7.503-1.838 5.514a.974.974 0 00-.047.284v3.951l-6.127-9.299a.083.083 0 00-.014-.014l-.012-.012a.993.993 0 00-.211-.215l-.023-.017c-.01-.009-.021-.017-.033-.025-.01-.006-.015-.012-.02-.016l-.015-.01-3.605-2.085-1.497-2.272L5.628 9.27a.983.983 0 00-1.147-.386L.654 10.227a.983.983 0 00-.491 1.468l2.705 4.107 1.492 2.27.492 4.137a.36.36 0 00.01.04.7.7 0 00.015.061.973.973 0 00.116.295c.004.005.005.011.007.017a.055.055 0 00.007.016l.664 1.006v.001c2.86 4.332 13.97 21.166 14.031 21.218A4.87 4.87 0 0024.254 48c.402 0 .802-.05 1.191-.145a4.886 4.886 0 003.028-2.235l13.08-21.698 2.065-1.307a8.344 8.344 0 002.66-2.721 8.259 8.259 0 001.18-4.651l-.383-8.42a.983.983 0 00-.467-.803zm-7.122 17.524l-1.522 2.527-5.054-3.048 1.524-2.527 5.052 3.048zm-18.171.036v14.866l5.9-9.786v-5.08h-5.9zm1.693-5.9h2.515l1.31 3.933h-5.136l1.31-3.933zm.274-7.868a.983.983 0 101.966 0 .983.983 0 00-1.966 0zm.983-7.211l4.75 6.331-3.39 6.78h-.377v-3.13a2.95 2.95 0 10-1.966 0v3.13h-.376l-3.39-6.78 4.75-6.331zM10.241 18.009l.289-.191-2.43-1.406a.988.988 0 01-.328-.31L6.691 14.46l-1.642 1.082 1.081 1.642a.982.982 0 01.156.424l.333 2.787 3.622-2.386zm-5.833-7.017l1.2 1.822-1.642 1.082-1.475-2.232 1.917-.672zm7.707 8.131l-2.458 1.624-2.464 1.624 12.155 18.45V30.095l-7.233-10.972zm14.677 25.475a2.95 2.95 0 11-5.07-3.019l.005-.008.013-.021 7.425-12.315h.017v-.027l2.712-4.499 2.527 1.526 2.53 1.52-10.16 16.843zm15.779-23.65a6.304 6.304 0 002.929-5.62l-.104-2.264-2.297.57a4.032 4.032 0 00-2.977 3.043.984.984 0 11-1.919-.43 5.987 5.987 0 014.425-4.524l2.382-.59a.974.974 0 01.295-.013l-.125-2.74-6.294 2.962a6.318 6.318 0 00-3.604 5.213l-.162 2.065 2.852 1.717 2.852 1.717 1.747-1.107z" fill="#2BD0D0"/></svg>